<svg xmlns="http://www.w3.org/2000/svg" width="25" height="25" viewBox="0 0 25 25">
  <g id="error_FILL1_wght500_GRAD200_opsz48" transform="translate(0)">
    <path id="error_FILL1_wght500_GRAD200_opsz48-2" data-name="error_FILL1_wght500_GRAD200_opsz48" d="M15.77,17.029a1.1,1.1,0,0,0,1.139-1.169V10.4A1.179,1.179,0,0,0,15.77,9.265,1.128,1.128,0,0,0,14.6,10.434V15.89a1.076,1.076,0,0,0,.345.809,1.151,1.151,0,0,0,.824.33ZM15.65,22a1.185,1.185,0,1,0-.914-.345A1.236,1.236,0,0,0,15.65,22Zm0,6.145a12.648,12.648,0,0,1-4.931-.959,12.051,12.051,0,0,1-6.61-6.61A12.648,12.648,0,0,1,3.15,15.65a12.648,12.648,0,0,1,.959-4.931,12.051,12.051,0,0,1,6.61-6.61A12.648,12.648,0,0,1,15.65,3.15a12.648,12.648,0,0,1,4.931.959,12.051,12.051,0,0,1,6.61,6.61,12.648,12.648,0,0,1,.959,4.931,12.648,12.648,0,0,1-.959,4.931,12.051,12.051,0,0,1-6.61,6.61,12.648,12.648,0,0,1-4.931.959Z" transform="translate(-3.15 -3.15)" fill="#f44336"/>
  </g>
</svg>
